<?xml version="1.0" ?><!DOCTYPE svg  PUBLIC '-//W3C//DTD SVG 1.1//EN'
        'http://www.w3.org/Graphics/SVG/1.1/DTD/svg11.dtd'>
<svg height="512px" style="enable-background:new 0 0 512 512;" version="1.1" viewBox="0 0 512 512" width="512px"
     xml:space="preserve" xmlns="http://www.w3.org/2000/svg"><g id="_x34_45_x2C__digital_x2C__fiber_x2C__electronic_x2C__lane_x2C__cable"><g><path d="M420.506,294.705H286.155c-2.204,0-3.983-1.781-3.983-3.984v-39.547    h-24.359v181.09h191.036v-181.09h-24.359v39.547C424.489,292.924,422.71,294.705,420.506,294.705 M290.139,286.737h126.384    v-35.563H290.139V286.737z M193.908,227.594H67.524v35.531h126.384V227.594z M63.541,219.626h134.351    c2.204,0,3.987,1.782,3.987,3.983v39.516h24.356V82.067H35.202v181.058h24.356v-39.516    C59.558,221.408,61.337,219.626,63.541,219.626z M442.339,200.742c-2.173,0-3.952-1.78-3.952-3.983    c0-2.202,1.779-3.983,3.952-3.983h30.477c2.204,0,3.983,1.781,3.983,3.983v91.403c0,2.203-1.779,3.984-3.983,3.984    c-2.2,0-3.983-1.781-3.983-3.984v-87.42H442.339z M209.294,401.073c3.594,0.777,6.801,2.591,9.296,5.085    c3.433,3.434,5.538,8.13,5.538,13.312c0,5.15-2.105,9.847-5.506,13.28c-3.432,3.4-8.128,5.506-13.28,5.506    c-5.184,0-9.879-2.105-13.28-5.506c-3.432-3.434-5.538-8.13-5.538-13.28c0-5.182,2.105-9.878,5.506-13.28    c2.527-2.525,5.731-4.339,9.328-5.116V292.341h-29.347v51.823c3.566,0.777,6.77,2.592,9.265,5.085    c3.433,3.433,5.538,8.13,5.538,13.28c0,5.183-2.105,9.879-5.506,13.279c-3.432,3.434-8.128,5.539-13.28,5.539    c-5.184,0-9.879-2.105-13.28-5.506c-3.432-3.434-5.538-8.13-5.538-13.313c0-5.15,2.106-9.848,5.507-13.248    c2.527-2.525,5.734-4.34,9.328-5.117v-51.823h-29.347V418.79c3.566,0.777,6.77,2.591,9.297,5.085    c3.401,3.434,5.506,8.13,5.506,13.28c0,5.182-2.105,9.878-5.506,13.279c-3.401,3.434-8.097,5.538-13.28,5.538    c-5.18,0-9.879-2.104-13.28-5.506c-3.432-3.434-5.538-8.13-5.538-13.312c0-5.15,2.106-9.847,5.507-13.248    c2.527-2.526,5.734-4.34,9.328-5.117V292.341H97.386v77.347c3.597,0.777,6.805,2.559,9.297,5.084    c3.432,3.402,5.538,8.099,5.538,13.28c0,5.183-2.106,9.88-5.506,13.28c-3.433,3.433-8.128,5.539-13.312,5.539    c-5.148,0-9.879-2.106-13.28-5.539c-3.4-3.4-5.506-8.098-5.506-13.28c0-5.182,2.106-9.878,5.506-13.28    c2.495-2.525,5.735-4.307,9.297-5.084v-77.347H60.073v155.697c3.597,0.777,6.805,2.559,9.297,5.084    c3.436,3.402,5.538,8.099,5.538,13.28c0,5.183-2.103,9.879-5.506,13.28c-3.433,3.433-8.128,5.539-13.312,5.539    c-5.148,0-9.879-2.106-13.28-5.507c-3.4-3.434-5.506-8.13-5.506-13.313c0-5.182,2.106-9.878,5.506-13.28    c2.527-2.493,5.734-4.307,9.297-5.084V292.341H35.202v-21.247h28.241h0.098h134.351h0.098h28.245v21.247h-16.94V401.073z     M86.019,485.999c-2.169,0-3.983-1.782-3.983-3.984s1.814-3.984,3.983-3.984h262.419c2.204,0,3.987,1.782,3.987,3.984    s-1.783,3.984-3.987,3.984H86.019z M239.676,469.414c-2.204,0-3.983-1.78-3.983-3.982c0-2.203,1.779-3.984,3.983-3.984H421.25    c2.204,0,3.987,1.781,3.987,3.984c0,2.202-1.783,3.982-3.987,3.982H239.676z M439.844,469.414c-2.204,0-3.983-1.78-3.983-3.982    c0-2.203,1.779-3.984,3.983-3.984h22.706c2.2,0,3.983,1.781,3.983,3.984c0,2.202-1.783,3.982-3.983,3.982H439.844z     M257.813,243.206h28.244h0.099h134.351h0.099h28.244V221.99H431.94V118.538c3.562-0.777,6.801-2.591,9.296-5.118    c3.401-3.4,5.507-8.097,5.507-13.279c0-5.149-2.105-9.846-5.507-13.279c-3.4-3.4-8.096-5.506-13.279-5.506    s-9.88,2.105-13.28,5.539c-3.433,3.4-5.538,8.097-5.538,13.246c0,5.183,2.105,9.879,5.538,13.313    c2.495,2.494,5.731,4.308,9.297,5.085V221.99h-29.347v-54.933c3.598-0.777,6.802-2.591,9.297-5.118    c3.433-3.4,5.538-8.097,5.538-13.279c0-5.149-2.105-9.846-5.538-13.279c-3.4-3.401-8.097-5.506-13.28-5.506    c-5.151,0-9.879,2.104-13.28,5.506c-3.432,3.434-5.537,8.13-5.537,13.279c0,5.183,2.105,9.879,5.537,13.313    c2.527,2.494,5.734,4.308,9.297,5.085v54.933h-29.346V96.643c3.597-0.777,6.801-2.559,9.328-5.084    c3.4-3.402,5.506-8.098,5.506-13.281c0-5.182-2.105-9.879-5.537-13.279c-3.401-3.4-8.098-5.506-13.281-5.506    c-5.148,0-9.879,2.105-13.279,5.506s-5.506,8.098-5.506,13.279c0,5.184,2.105,9.879,5.506,13.313    c2.527,2.494,5.734,4.308,9.297,5.053V221.99h-29.347v-80.455c3.597-0.777,6.802-2.592,9.328-5.086    c3.401-3.4,5.507-8.129,5.507-13.279c0-5.182-2.105-9.879-5.538-13.313c-3.401-3.4-8.097-5.506-13.28-5.506    c-5.148,0-9.848,2.105-13.28,5.538c-3.4,3.401-5.506,8.099-5.506,13.28c0,5.15,2.105,9.879,5.538,13.279    c2.495,2.526,5.703,4.309,9.297,5.086v80.455h-29.379V63.185c3.598-0.777,6.802-2.592,9.328-5.118    c3.401-3.4,5.507-8.097,5.507-13.247c0-5.182-2.105-9.878-5.538-13.313c-3.4-3.401-8.097-5.505-13.248-5.505    c-5.181,0-9.88,2.104-13.312,5.537c-3.401,3.402-5.507,8.099-5.507,13.28c0,5.15,2.105,9.847,5.538,13.28    c2.495,2.493,5.703,4.308,9.297,5.085V221.99h-16.94V243.206z" style="fill-rule:evenodd;clip-rule:evenodd;"/></g></g>
    <g id="Layer_1"/></svg>
